<svg width="174" height="34" viewBox="0 0 174 34" fill="none" xmlns="http://www.w3.org/2000/svg">
<path fill-rule="evenodd" clip-rule="evenodd" d="M1.72203 0.17575L7.9317 4.01015C8.26489 4.21588 8.46774 4.57963 8.46774 4.97134V22.4883C8.46774 22.8856 8.25917 23.2536 7.91845 23.4576L1.70877 27.1751C1.1737 27.4954 0.48039 27.3211 0.160209 26.7858C0.055368 26.6105 0 26.4101 0 26.2058V1.13695C0 0.51312 0.505485 0.00740814 1.12903 0.00740814C1.33848 0.00740814 1.5438 0.0656945 1.72203 0.17575Z" fill="#9155FD"/>
<path opacity="0.077704" fill-rule="evenodd" clip-rule="evenodd" d="M0 9.13708L8.46774 13.9947V18.7569L0 9.13708Z" fill="black"/>
<path opacity="0.077704" fill-rule="evenodd" clip-rule="evenodd" d="M0 9.13708L8.46774 13.871V16.7802L0 9.13708Z" fill="black"/>
<path fill-rule="evenodd" clip-rule="evenodd" d="M33.2794 0.171299L27.0697 3.99285C26.7357 4.1984 26.5323 4.56262 26.5323 4.95493V22.4883C26.5323 22.8856 26.7408 23.2536 27.0816 23.4576L33.2912 27.1751C33.8263 27.4954 34.5196 27.3211 34.8398 26.7858C34.9446 26.6105 35 26.4101 35 26.2058V1.13339C35 0.509557 34.4945 0.00384521 33.871 0.00384521C33.6621 0.00384521 33.4573 0.0618122 33.2794 0.171299Z" fill="#9155FD"/>
<path opacity="0.077704" fill-rule="evenodd" clip-rule="evenodd" d="M35 9.13708L26.5323 13.9845V18.9007L35 9.13708Z" fill="black"/>
<path opacity="0.077704" fill-rule="evenodd" clip-rule="evenodd" d="M35 9.13708L26.5323 13.8669V16.924L35 9.13708Z" fill="black"/>
<path fill-rule="evenodd" clip-rule="evenodd" d="M1.71902 0.166493L17.5 9.84305V19.1618L0 9.13451V1.12954C0 0.505712 0.505485 0 1.12903 0C1.33728 0 1.54147 0.0576217 1.71902 0.166493Z" fill="#9155FD"/>
<path fill-rule="evenodd" clip-rule="evenodd" d="M1.71902 0.166493L17.5 9.84305V19.1618L0 9.13451V1.12954C0 0.505712 0.505485 0 1.12903 0C1.33728 0 1.54147 0.0576217 1.71902 0.166493Z" fill="white" fill-opacity="0.15"/>
<path fill-rule="evenodd" clip-rule="evenodd" d="M33.281 0.166493L17.5 9.84305V19.1618L35 9.13451V1.12954C35 0.505712 34.4945 0 33.871 0C33.6627 0 33.4585 0.0576217 33.281 0.166493Z" fill="#9155FD"/>
<path fill-rule="evenodd" clip-rule="evenodd" d="M33.281 0.166493L17.5 9.84305V19.1618L35 9.13451V1.12954C35 0.505712 34.4945 0 33.871 0C33.6627 0 33.4585 0.0576217 33.281 0.166493Z" fill="white" fill-opacity="0.3"/>
<path d="M48.7216 23V5.54545H55.267C56.608 5.54545 57.733 5.79545 58.642 6.29545C59.5568 6.79545 60.2472 7.48295 60.7131 8.35795C61.1847 9.22727 61.4205 10.2159 61.4205 11.3239C61.4205 12.4432 61.1847 13.4375 60.7131 14.3068C60.2415 15.1761 59.5455 15.8608 58.625 16.3608C57.7045 16.8551 56.571 17.1023 55.2244 17.1023H50.8864V14.5028H54.7983C55.5824 14.5028 56.2244 14.3665 56.7244 14.0938C57.2244 13.821 57.5938 13.446 57.8324 12.9688C58.0767 12.4915 58.1989 11.9432 58.1989 11.3239C58.1989 10.7045 58.0767 10.1591 57.8324 9.6875C57.5938 9.21591 57.2216 8.84943 56.7159 8.58807C56.2159 8.32102 55.571 8.1875 54.7812 8.1875H51.8835V23H48.7216ZM72.647 17.4943V9.90909H75.7322V23H72.7408V20.6733H72.6044C72.3089 21.4062 71.8232 22.0057 71.147 22.4716C70.4766 22.9375 69.6499 23.1705 68.6669 23.1705C67.8089 23.1705 67.0504 22.9801 66.3913 22.5994C65.7379 22.2131 65.2266 21.6534 64.8572 20.9205C64.4879 20.1818 64.3033 19.2898 64.3033 18.2443V9.90909H67.3885V17.767C67.3885 18.5966 67.6158 19.2557 68.0703 19.7443C68.5249 20.233 69.1214 20.4773 69.8601 20.4773C70.3146 20.4773 70.755 20.3665 71.1811 20.1449C71.6072 19.9233 71.9567 19.5938 72.2294 19.1562C72.5078 18.7131 72.647 18.1591 72.647 17.4943ZM79.1776 27.9091V9.90909H82.2116V12.0739H82.3906C82.5497 11.7557 82.7741 11.4176 83.0639 11.0597C83.3537 10.696 83.7457 10.3864 84.2401 10.1307C84.7344 9.86932 85.3651 9.73864 86.1321 9.73864C87.1435 9.73864 88.0554 9.99716 88.8679 10.5142C89.6861 11.0256 90.3338 11.7841 90.8111 12.7898C91.294 13.7898 91.5355 15.017 91.5355 16.4716C91.5355 17.9091 91.2997 19.1307 90.8281 20.1364C90.3565 21.142 89.7145 21.9091 88.902 22.4375C88.0895 22.9659 87.169 23.2301 86.1406 23.2301C85.3906 23.2301 84.7685 23.1051 84.2741 22.8551C83.7798 22.6051 83.3821 22.304 83.081 21.9517C82.7855 21.5937 82.5554 21.2557 82.3906 20.9375H82.2628V27.9091H79.1776ZM82.2031 16.4545C82.2031 17.3011 82.3224 18.0426 82.5611 18.679C82.8054 19.3153 83.1548 19.8125 83.6094 20.1705C84.0696 20.5227 84.6264 20.6989 85.2798 20.6989C85.9616 20.6989 86.5327 20.517 86.9929 20.1534C87.4531 19.7841 87.7997 19.2812 88.0327 18.6449C88.2713 18.0028 88.3906 17.2727 88.3906 16.4545C88.3906 15.642 88.2741 14.9205 88.0412 14.2898C87.8082 13.6591 87.4616 13.1648 87.0014 12.8068C86.5412 12.4489 85.9673 12.2699 85.2798 12.2699C84.6207 12.2699 84.0611 12.4432 83.6009 12.7898C83.1406 13.1364 82.7912 13.6222 82.5526 14.2472C82.3196 14.8722 82.2031 15.608 82.2031 16.4545ZM94.4503 27.9091V9.90909H97.4844V12.0739H97.6634C97.8224 11.7557 98.0469 11.4176 98.3366 11.0597C98.6264 10.696 99.0185 10.3864 99.5128 10.1307C100.007 9.86932 100.638 9.73864 101.405 9.73864C102.416 9.73864 103.328 9.99716 104.141 10.5142C104.959 11.0256 105.607 11.7841 106.084 12.7898C106.567 13.7898 106.808 15.017 106.808 16.4716C106.808 17.9091 106.572 19.1307 106.101 20.1364C105.629 21.142 104.987 21.9091 104.175 22.4375C103.362 22.9659 102.442 23.2301 101.413 23.2301C100.663 23.2301 100.041 23.1051 99.5469 22.8551C99.0526 22.6051 98.6548 22.304 98.3537 21.9517C98.0582 21.5937 97.8281 21.2557 97.6634 20.9375H97.5355V27.9091H94.4503ZM97.4759 16.4545C97.4759 17.3011 97.5952 18.0426 97.8338 18.679C98.0781 19.3153 98.4276 19.8125 98.8821 20.1705C99.3423 20.5227 99.8991 20.6989 100.553 20.6989C101.234 20.6989 101.805 20.517 102.266 20.1534C102.726 19.7841 103.072 19.2812 103.305 18.6449C103.544 18.0028 103.663 17.2727 103.663 16.4545C103.663 15.642 103.547 14.9205 103.314 14.2898C103.081 13.6591 102.734 13.1648 102.274 12.8068C101.814 12.4489 101.24 12.2699 100.553 12.2699C99.8935 12.2699 99.3338 12.4432 98.8736 12.7898C98.4134 13.1364 98.0639 13.6222 97.8253 14.2472C97.5923 14.8722 97.4759 15.608 97.4759 16.4545ZM112.808 5.54545V23H109.723V5.54545H112.808ZM122.049 23.2557C120.737 23.2557 119.603 22.983 118.648 22.4375C117.7 21.8864 116.969 21.108 116.458 20.1023C115.947 19.0909 115.691 17.9006 115.691 16.5312C115.691 15.1847 115.947 14.0028 116.458 12.9858C116.975 11.9631 117.697 11.1676 118.623 10.5994C119.549 10.0256 120.637 9.73864 121.887 9.73864C122.694 9.73864 123.455 9.86932 124.171 10.1307C124.893 10.3864 125.529 10.7841 126.08 11.3239C126.637 11.8636 127.075 12.5511 127.393 13.3864C127.711 14.2159 127.87 15.2045 127.87 16.3523V17.2983H117.14V15.2188H124.913C124.907 14.6278 124.779 14.1023 124.529 13.642C124.279 13.1761 123.93 12.8097 123.481 12.5426C123.038 12.2756 122.521 12.142 121.93 12.142C121.299 12.142 120.745 12.2955 120.268 12.6023C119.79 12.9034 119.418 13.3011 119.151 13.7955C118.89 14.2841 118.756 14.821 118.751 15.4062V17.2216C118.751 17.983 118.89 18.6364 119.168 19.1818C119.447 19.7216 119.836 20.1364 120.336 20.4261C120.836 20.7102 121.421 20.8523 122.092 20.8523C122.54 20.8523 122.947 20.7898 123.31 20.6648C123.674 20.5341 123.989 20.3438 124.256 20.0938C124.523 19.8438 124.725 19.5341 124.862 19.1648L127.742 19.4886C127.56 20.25 127.214 20.9148 126.702 21.483C126.197 22.0455 125.549 22.483 124.759 22.7955C123.969 23.1023 123.066 23.2557 122.049 23.2557ZM132.006 5.54545L136.548 19.2841H136.727L141.261 5.54545H144.739L138.585 23H134.682L128.537 5.54545H132.006ZM151.563 23.2557C150.251 23.2557 149.117 22.983 148.163 22.4375C147.214 21.8864 146.484 21.108 145.972 20.1023C145.461 19.0909 145.205 17.9006 145.205 16.5312C145.205 15.1847 145.461 14.0028 145.972 12.9858C146.489 11.9631 147.211 11.1676 148.137 10.5994C149.063 10.0256 150.151 9.73864 151.401 9.73864C152.208 9.73864 152.969 9.86932 153.685 10.1307C154.407 10.3864 155.043 10.7841 155.594 11.3239C156.151 11.8636 156.589 12.5511 156.907 13.3864C157.225 14.2159 157.384 15.2045 157.384 16.3523V17.2983H146.654V15.2188H154.427C154.421 14.6278 154.293 14.1023 154.043 13.642C153.793 13.1761 153.444 12.8097 152.995 12.5426C152.552 12.2756 152.035 12.142 151.444 12.142C150.813 12.142 150.259 12.2955 149.782 12.6023C149.305 12.9034 148.933 13.3011 148.665 13.7955C148.404 14.2841 148.271 14.821 148.265 15.4062V17.2216C148.265 17.983 148.404 18.6364 148.683 19.1818C148.961 19.7216 149.35 20.1364 149.85 20.4261C150.35 20.7102 150.935 20.8523 151.606 20.8523C152.055 20.8523 152.461 20.7898 152.825 20.6648C153.188 20.5341 153.504 20.3438 153.771 20.0938C154.038 19.8438 154.239 19.5341 154.376 19.1648L157.256 19.4886C157.075 20.25 156.728 20.9148 156.217 21.483C155.711 22.0455 155.063 22.483 154.273 22.7955C153.484 23.1023 152.58 23.2557 151.563 23.2557ZM165.96 28.1818C164.852 28.1818 163.901 28.0313 163.105 27.7301C162.31 27.4347 161.67 27.0369 161.187 26.5369C160.705 26.0369 160.369 25.483 160.182 24.875L162.96 24.2017C163.085 24.4574 163.267 24.7102 163.506 24.9602C163.744 25.2159 164.065 25.4261 164.469 25.5909C164.878 25.7614 165.392 25.8466 166.011 25.8466C166.886 25.8466 167.611 25.6335 168.185 25.2074C168.759 24.7869 169.045 24.0938 169.045 23.1278V20.6477H168.892C168.733 20.9659 168.5 21.2926 168.193 21.6278C167.892 21.9631 167.491 22.2443 166.991 22.4716C166.497 22.6989 165.875 22.8125 165.125 22.8125C164.119 22.8125 163.207 22.5767 162.389 22.1051C161.577 21.6278 160.929 20.9176 160.446 19.9744C159.969 19.0256 159.73 17.8381 159.73 16.4119C159.73 14.9744 159.969 13.7614 160.446 12.7727C160.929 11.7784 161.58 11.0256 162.398 10.5142C163.216 9.99716 164.128 9.73864 165.134 9.73864C165.901 9.73864 166.531 9.86932 167.026 10.1307C167.526 10.3864 167.923 10.696 168.219 11.0597C168.514 11.4176 168.739 11.7557 168.892 12.0739H169.062V9.90909H172.105V23.2131C172.105 24.3324 171.838 25.2585 171.304 25.9915C170.77 26.7244 170.04 27.2727 169.114 27.6364C168.187 28 167.136 28.1818 165.96 28.1818ZM165.986 20.392C166.639 20.392 167.196 20.233 167.656 19.9148C168.116 19.5966 168.466 19.1392 168.705 18.5426C168.943 17.946 169.062 17.2301 169.062 16.3949C169.062 15.571 168.943 14.8494 168.705 14.2301C168.472 13.6108 168.125 13.1307 167.665 12.7898C167.21 12.4432 166.651 12.2699 165.986 12.2699C165.298 12.2699 164.724 12.4489 164.264 12.8068C163.804 13.1648 163.457 13.6562 163.224 14.2812C162.991 14.9006 162.875 15.6051 162.875 16.3949C162.875 17.196 162.991 17.8977 163.224 18.5C163.463 19.0966 163.812 19.5625 164.273 19.8977C164.739 20.2273 165.31 20.392 165.986 20.392Z" fill="#3A3541" fill-opacity="0.87"/>
</svg>
